<svg height="63.00053405761719" width="370.00000000000006" style="width: 370px; height: 63.0005px; position: absolute; top: 50%; left: 50%; transform: translate(-50%, -50%) scale(1); z-index: 0; cursor: pointer; overflow: visible;" xmlns="http://www.w3.org/2000/svg">
  <defs></defs>
  <g transform="matrix(0.7777777777777778,0,0,0.7777777777777778,-3.888888888888889,-7.38835186428494)" fill="#ffffff">
    <path d="M5,59.139V46.926c0-1.119,0.919-2.034,2.045-2.034h21.581L19.23,61.175H7.045 C5.919,61.175,5,60.262,5,59.139z M20.373,84.147l-6.887,4.666c-0.927,0.63-1.582,0.231-1.454-0.881l0.919-7.984 c0.128-1.112,1.03-1.566,2.005-1.01l5.33,3.045C21.26,82.541,21.3,83.519,20.373,84.147z M22.027,79.647l-5.33-3.046 c-0.975-0.557-1.318-1.805-0.751-2.776l24.681-42.784c0.56-0.972,1.822-1.313,2.796-0.749l5.33,3.038 c0.975,0.564,1.31,1.813,0.751,2.782L24.823,78.899C24.264,79.869,23.001,80.202,22.027,79.647z M40.811,61.175l9.396-16.283h5.41 l7.63,16.283H40.811z M71.413,66.034c-2.133-1.065-12.76-25.476-15.484-31.845c-2.725-6.369-10.955-23.323-8.293-24.642 c1.894-0.946,8.693,12.404,13.79,20.419c5.09,8.015,15.733,28.681,17.043,31.034c1.303,2.36-1.254,4.326-2.676,4.915 C74.37,66.504,73.546,67.091,71.413,66.034z M78.397,77.254l-3.212-5.05c-0.663-1.05-0.319-2.347,0.759-2.901l3.06-1.567 c1.079-0.549,2.429-0.104,3.004,0.995l2.533,4.85c0.576,1.097,0.184,2.505-0.855,3.125l-2.189,1.303 C80.458,78.637,79.06,78.295,78.397,77.254z M90.214,90.5c-0.671-2.139-5.793-2.281-8.086-5.503c-2.301-3.211-0.399-4.865,0.4-5.629 C91.828,74.153,90.214,90.5,90.214,90.5z M95,59.139c0,1.123-0.919,2.036-2.045,2.036H82.152c-0.119-0.628-0.312-1.256-0.639-1.845 c-0.28-0.501-0.991-1.852-1.982-3.736c-1.43-2.719-3.483-6.607-5.681-10.702h19.104c1.126,0,2.045,0.915,2.045,2.034V59.139z">
    </path>
  </g>
  <g transform="matrix(3.199069467098368,0,0,3.199069467098368,87.55969725254303,-10.22557895931499)" fill="#ffffff">
    <path d="M12.661 17.5764 c0.13559 0.11864 0.13576 0.27136 -0.016784 0.42373 c-1.2542 1.3222 -2.9661 2.1186 -5 2.1186 c-3.7627 0 -6.8814 -3.0168 -6.8814 -6.8642 s3.1186 -6.9322 6.8814 -6.9322 c2 0 3.7625 0.79661 5.0337 2.1356 c0.15254 0.15238 0.15254 0.30492 0.016949 0.40661 l-1.0847 0.88119 c-0.13559 0.11881 -0.25424 0.11881 -0.38983 -0.016784 c-0.72881 -0.76271 -1.9831 -1.5593 -3.5085 -1.5593 c-3.0508 0 -5.0339 2.5424 -5.0339 5.0847 c0 2.5593 1.9831 5.0169 5.0339 5.0169 c1.5085 0 2.7288 -0.76271 3.4576 -1.5085 c0.13559 -0.15254 0.27119 -0.16933 0.40678 -0.067797 z M18.593071186440678 20.11864 c2.3729 0 4.339 -1.8812 4.339 -4.3049 c0 -2.4746 -1.9661 -4.322 -4.339 -4.322 s-4.339 1.8475 -4.339 4.322 c0 2.4237 1.9661 4.3049 4.339 4.3049 z M18.593071186440678 18.39 c-1.4576 0 -2.5424 -1.2034 -2.5424 -2.5593 c0 -1.4068 1.0847 -2.6102 2.5424 -2.6102 s2.5424 1.2034 2.5424 2.6102 c0 1.3559 -1.0847 2.5593 -2.5424 2.5593 z M26.610211864406782 6.441000000000001 l-1.3053 0 c-0.16933 0 -0.27119 0.11864 -0.27119 0.27119 l0 12.61 c0 0.38983 0.23746 0.6778 0.66119 0.6778 l0.91525 0 c0.16949 0 0.27119 -0.10153 0.27119 -0.28797 l0 -13 c0 -0.15254 -0.11864 -0.27119 -0.27119 -0.27119 z M30.93224576271187 6.441000000000001 l-1.3053 0 c-0.16933 0 -0.27119 0.11864 -0.27119 0.27119 l0 12.61 c0 0.38983 0.23746 0.6778 0.66119 0.6778 l0.91525 0 c0.16949 0 0.27119 -0.10153 0.27119 -0.28797 l0 -13 c0 -0.15254 -0.11864 -0.27119 -0.27119 -0.27119 z M40.525235593220344 19.62712 c-0.22034 -1.661 -0.2368 -3.2032 -0.16916 -4.8302 c0.084746 -2 -1.0169 -3.2881 -3.0847 -3.2881 c-1.3559 0 -2.7627 0.40678 -3.5932 0.86441 c-0.15254 0.084746 -0.25424 0.23712 -0.18644 0.38966 l0.42373 0.98305 c0.067797 0.16949 0.18644 0.22034 0.40678 0.11864 c1.0847 -0.49153 1.9661 -0.72881 2.8305 -0.72881 c0.91525 0 1.4576 0.35593 1.4237 1.322 c-3.1356 0.5422 -5.5254 1.1015 -5.5254 3.3049 c0 1.4746 1.0678 2.3219 2.7966 2.3219 c1.4408 0 2.1864 -0.44051 2.8983 -0.98288 c0.08458 0.50847 0.23712 0.89831 0.5761 0.89831 l1.0169 0 c0.15238 0 0.20322 -0.18644 0.18627 -0.37288 z M36.16963559322035 18.627299999999998 c-0.69492 0 -1.2373 -0.23729 -1.2373 -0.88136 c0 -1.0339 1.8981 -1.3729 3.6102 -1.7288 c-0.016949 0.55932 -0.016949 1.3051 0 1.7966 c-0.55932 0.42373 -1.5085 0.81356 -2.3729 0.81356 z M49.915227118644076 12.7798 c1.4068 0.64407 2.2881 1.9324 2.2881 3.4408 c0 2.2373 -1.9661 3.7795 -4.0508 3.7795 l-5.4746 0 c-0.16949 0 -0.28814 -0.11864 -0.28814 -0.28814 l0 -13 c0 -0.15254 0.10169 -0.27119 0.27119 -0.27119 l5.051 0 c2.1524 0 3.7625 1.8814 3.7625 3.5763 c0 1.2373 -0.66102 2.2034 -1.5593 2.7627 z M47.339027118644076 12.2207 c2.8136 0 2.8644 -3.9322 0.033898 -3.9322 l-3.0678 0 l0 3.9322 l3.0339 0 z M47.711827118644074 18.1529 c3.322 0 3.339 -4.1356 -0.033898 -4.1356 l-3.3729 0 l0.016949 4.1356 l3.3898 0 z M58.118494915254246 20.11864 c2.3729 0 4.339 -1.8812 4.339 -4.3049 c0 -2.4746 -1.9661 -4.322 -4.339 -4.322 s-4.339 1.8475 -4.339 4.322 c0 2.4237 1.9661 4.3049 4.339 4.3049 z M58.118494915254246 18.39 c-1.4576 0 -2.5424 -1.2034 -2.5424 -2.5593 c0 -1.4068 1.0847 -2.6102 2.5424 -2.6102 s2.5424 1.2034 2.5424 2.6102 c0 1.3559 -1.0847 2.5593 -2.5424 2.5593 z M71.37269322033899 19.62712 c-0.22034 -1.661 -0.2368 -3.2032 -0.16916 -4.8302 c0.084746 -2 -1.0169 -3.2881 -3.0847 -3.2881 c-1.3559 0 -2.7627 0.40678 -3.5932 0.86441 c-0.15254 0.084746 -0.25424 0.23712 -0.18644 0.38966 l0.42373 0.98305 c0.067797 0.16949 0.18644 0.22034 0.40678 0.11864 c1.0847 -0.49153 1.9661 -0.72881 2.8305 -0.72881 c0.91525 0 1.4576 0.35593 1.4237 1.322 c-3.1356 0.5422 -5.5254 1.1015 -5.5254 3.3049 c0 1.4746 1.0678 2.3219 2.7966 2.3219 c1.4408 0 2.1864 -0.44051 2.8983 -0.98288 c0.08458 0.50847 0.23712 0.89831 0.5761 0.89831 l1.0169 0 c0.15238 0 0.20322 -0.18644 0.18627 -0.37288 z M67.01709322033899 18.627299999999998 c-0.69492 0 -1.2373 -0.23729 -1.2373 -0.88136 c0 -1.0339 1.8981 -1.3729 3.6102 -1.7288 c-0.016949 0.55932 -0.016949 1.3051 0 1.7966 c-0.55932 0.42373 -1.5085 0.81356 -2.3729 0.81356 z M79.25408474576271 12.034099999999999 c0.18644 0.11864 0.23729 0.22017 0.11848 0.40661 l-0.69475 1.0169 c-0.084746 0.11864 -0.20339 0.15254 -0.35593 0.11864 c-0.35593 -0.16949 -0.66102 -0.32203 -1.2203 -0.32203 s-1.4407 0.23729 -1.9153 1.2881 l0 5.1866 c0 0.15238 -0.10169 0.27102 -0.25424 0.27102 l-1.339 0 c-0.15254 0 -0.25424 -0.11864 -0.25424 -0.27102 l0 -7.8476 c0 -0.15238 0.11864 -0.27119 0.25424 -0.27119 l0.9322 0 c0.40678 0 0.66102 0.42373 0.66102 0.72881 l0 0.11881 c0.59322 -0.54237 1.3051 -0.91525 2.2373 -0.91525 c0.86441 0 1.5085 0.27119 1.8305 0.49153 z M87.64402711864408 6.441000000000001 c0.38983 0 0.64424 0.25458 0.64424 0.61051 l0 12.678 c0 0.15238 -0.11864 0.27102 -0.25424 0.27102 l-0.69492 0 c-0.33898 0 -0.79661 -0.22017 -0.88119 -0.62695 c-0.59356 0.42373 -1.3902 0.74542 -2.3393 0.74542 c-2.3898 0 -3.9831 -1.932 -3.9831 -4.4066 c0 -2.5424 1.9492 -4.1695 3.9322 -4.1695 c1.0508 0 1.7964 0.3222 2.39 0.67797 l0 -4.322 c0 -0.52542 -0.10186 -0.79661 -0.15271 -1.1017 c-0.033898 -0.18661 0.033898 -0.3561 0.18644 -0.3561 l1.1525 0 z M81.94932711864406 15.712399999999999 c0 1.678 1.0847 2.6949 2.4746 2.6949 c0.83051 0 1.4915 -0.27119 2.0339 -0.57627 l0 -3.8814 c-0.62712 -0.40678 -1.322 -0.69492 -2.1017 -0.69492 c-1.0678 0 -2.4068 0.72881 -2.4068 2.4576 z">
    </path>
  </g>
</svg>
